Coordinates
version=1
nRows=32
nColumns=22
inDegrees=yes

Units are S.I. units (second, meters, Newtons, ...)
If the header above contains a line with 'inDegrees', this indicates whether rotational values are in degrees (yes) or radians (no).

endheader
time	pelvis_tilt	pelvis_list	pelvis_rotation	pelvis_tx	pelvis_ty	pelvis_tz	hip_flexion_r	hip_adduction_r	hip_rotation_r	knee_angle_r	ankle_angle_r	subtalar_angle_r	hip_flexion_l	hip_adduction_l	hip_rotation_l	knee_angle_l	ankle_angle_l	subtalar_angle_l	lumbar_extension	lumbar_bending	lumbar_rotation
      1.33000000	    -10.37575845	      2.80078933	    -36.69359301	     -0.97335899	      0.88115837	     -0.37219439	      8.81614139	      2.03907945	      3.05207848	     -4.58655613	     11.07533393	     -1.84729878	      6.40220881	     -4.80652630	     -6.01476551	     -8.36330602	     16.50797666	      1.33407952	      5.57099074	      2.62400254	     11.98595895
      1.34000000	    -10.38803608	      2.82781787	    -36.69903544	     -0.97291112	      0.88106625	     -0.37243307	      8.89799926	      1.98864823	      3.05872214	     -4.72282773	     11.16581714	     -1.75865087	      6.48598109	     -4.76525381	     -5.93826500	     -8.50724114	     16.59945828	      1.20247105	      5.55866401	      2.61300013	     11.97453880
      1.35000000	    -10.37442814	      2.84298160	    -36.69577609	     -0.97236955	      0.88100321	     -0.37268570	      8.93749650	      1.92573799	      3.07102289	     -4.84439268	     11.26364166	     -1.72101880	      6.53724346	     -4.71295231	     -5.85473046	     -8.65187277	     16.72065279	      1.13623120	      5.51804653	      2.59704533	     11.95782305
      1.36000000	    -10.40918606	      2.88433261	    -36.66733569	     -0.97182958	      0.88086248	     -0.37302581	      9.09089015	      1.86745833	      3.03050495	     -5.06911092	     11.39645850	     -1.60218788	      6.67749767	     -4.66274144	     -5.73089109	     -8.84025898	     16.79348819	      0.92493097	      5.53359807	      2.58922254	     11.92102351
      1.37000000	    -10.40746497	      2.90747765	    -36.62888442	     -0.97118430	      0.88076837	     -0.37339228	      9.18894603	      1.79348240	      3.00599901	     -5.28210075	     11.53050204	     -1.50359850	      6.76729340	     -4.59746799	     -5.60345471	     -9.01828048	     16.90540687	      0.74816034	      5.50523172	      2.57624957	     11.87430093
      1.38000000	    -10.37150913	      2.91114758	    -36.58955634	     -0.97044525	      0.88071667	     -0.37377018	      9.24154559	      1.71023014	      2.98714281	     -5.49613263	     11.68232716	     -1.46030932	      6.80739435	     -4.52192655	     -5.48710184	     -9.19292086	     17.05108902	      0.66288388	      5.43499382	      2.56082272	     11.83013910
      1.39000000	    -10.39641188	      2.95924634	    -36.51784192	     -0.96970492	      0.88055583	     -0.37428584	      9.43544781	      1.61767231	      2.92765621	     -5.82092801	     11.85443929	     -1.29060451	      6.94510971	     -4.43424717	     -5.30507269	     -9.37953395	     17.13355530	      0.37215425	      5.44497602	      2.54806761	     11.76294254
      1.40000000	    -10.34241116	      2.94680874	    -36.45375418	     -0.96884399	      0.88051241	     -0.37479110	      9.51119227	      1.52420435	      2.88919974	     -6.13727636	     12.05426729	     -1.24596866	      6.95268872	     -4.34462075	     -5.18033690	     -9.53812736	     17.27977980	      0.28878821	      5.34221569	      2.54196626	     11.71787431
      1.41000000	    -10.35208960	      3.00423972	    -36.35356874	     -0.96798709	      0.88032733	     -0.37544106	      9.75111138	      1.40033661	      2.81330043	     -6.57237141	     12.28281701	     -1.05124079	      7.07486194	     -4.22081225	     -4.98058021	     -9.70507584	     17.35665536	     -0.01042069	      5.34201696	      2.51474923	     11.64781215
      1.42000000	    -10.29737016	      3.01331790	    -36.26271864	     -0.96702488	      0.88022903	     -0.37608752	      9.92242028	      1.27591211	      2.74407544	     -7.05237158	     12.56638120	     -0.95011170	      7.08973047	     -4.09425235	     -4.84090698	     -9.84907669	     17.47272178	     -0.16374391	      5.25094351	      2.49587716	     11.57105435
      1.43000000	    -10.26561760	      3.06780017	    -36.15821643	     -0.96605550	      0.88004161	     -0.37682712	     10.19540472	      1.12072902	      2.66826804	     -7.62612762	     12.85189838	     -0.76028555	      7.16328540	     -3.93277862	     -4.63868427	    -10.00807001	     17.60458005	     -0.41849432	      5.20782787	      2.44691030	     11.54251336
      1.44000000	    -10.19821586	      3.11068660	    -36.05922297	     -0.96502473	      0.87987148	     -0.37760140	     10.48011436	      0.95183091	      2.59701044	     -8.29772265	     13.20036672	     -0.58842269	      7.19567504	     -3.75376603	     -4.46457452	    -10.16905266	     17.74734842	     -0.63661013	      5.11990681	      2.39232689	     11.49883533
      1.45000000	    -10.12945101	      3.16319473	    -35.96895690	     -0.96396407	      0.87965196	     -0.37841277	     10.83168844	      0.77239188	      2.53883432	     -9.08317047	     13.56880366	     -0.35428493	      7.23583023	     -3.56160696	     -4.29444033	    -10.34047498	     17.94006340	     -0.91061985	      5.03428465	      2.33251325	     11.45826543
      1.46000000	    -10.02375254	      3.23212429	    -35.88597428	     -0.96289130	      0.87942011	     -0.37927973	     11.23095411	      0.55580278	      2.49610224	     -9.99198229	     13.98492679	     -0.14120739	      7.26924908	     -3.32751870	     -4.11218373	    -10.54173151	     18.12366638	     -1.14578559	      4.91612411	      2.23491984	     11.44014847
      1.47000000	     -9.88455719	      3.31287861	    -35.81714508	     -0.96181233	      0.87916700	     -0.38019091	     11.67857674	      0.30914136	      2.47480914	    -11.02415301	     14.43770631	      0.06678809	      7.29837325	     -3.05899511	     -3.92199096	    -10.78004184	     18.31743553	     -1.36493169	      4.76466351	      2.10641391	     11.44747225
      1.48000000	     -9.73067842	      3.39380396	    -35.75839627	     -0.96074780	      0.87887254	     -0.38113198	     12.19374797	      0.05696927	      2.48801015	    -12.19757721	     14.89416390	      0.32208208	      7.32705924	     -2.78162057	     -3.74098128	    -11.04256161	     18.55612493	     -1.62311741	      4.59133156	      1.96969363	     11.44290129
      1.49000000	     -9.54727396	      3.46309430	    -35.71251312	     -0.95968564	      0.87855833	     -0.38210576	     12.75179184	     -0.20096773	      2.51420192	    -13.50500281	     15.36752958	      0.61077274	      7.34138767	     -2.49532747	     -3.55787360	    -11.34819311	     18.82624395	     -1.90723445	      4.37080773	      1.82788638	     11.45468962
      1.50000000	     -9.32095832	      3.53515360	    -35.68099261	     -0.95863157	      0.87823775	     -0.38309621	     13.35395087	     -0.48226780	      2.56554694	    -14.95319578	     15.81928000	      0.85127533	      7.31788413	     -2.17835590	     -3.37226840	    -11.65408405	     19.09519885	     -2.14130279	      4.10228741	      1.65573662	     11.47795866
      1.51000000	     -9.06051784	      3.58769588	    -35.65931539	     -0.95759397	      0.87792395	     -0.38410329	     13.99178425	     -0.76173506	      2.63510922	    -16.53893482	     16.23718571	      1.06374396	      7.26334756	     -1.85694816	     -3.18551173	    -11.98504274	     19.37358857	     -2.34573583	      3.77654010	      1.47770445	     11.51826345
      1.52000000	     -8.80355087	      3.61271985	    -35.64534656	     -0.95657604	      0.87758827	     -0.38508595	     14.70114221	     -1.00558548	      2.72332306	    -18.28174674	     16.57607929	      1.31732164	      7.19851650	     -1.56635933	     -3.02408653	    -12.32641711	     19.69383412	     -2.58286949	      3.42920732	      1.32577894	     11.53335952
      1.53000000	     -8.53135585	      3.61510501	    -35.64271437	     -0.95557031	      0.87727439	     -0.38607801	     15.47024178	     -1.22990902	      2.83309132	    -20.17818384	     16.81319765	      1.55118409	      7.11284719	     -1.28398839	     -2.86567439	    -12.68110378	     20.01066814	     -2.78913148	      3.04056808	      1.18758631	     11.55957896
      1.54000000	     -8.27123371	      3.58987094	    -35.64384821	     -0.95459823	      0.87697168	     -0.38703886	     16.33150668	     -1.40835695	      2.95858484	    -22.25046714	     16.90648792	      1.80759268	      7.02727650	     -1.03756852	     -2.71974615	    -13.04728021	     20.34379341	     -2.99600578	      2.63596188	      1.07743740	     11.58132288
      1.55000000	     -8.00349512	      3.52952167	    -35.65113556	     -0.95364698	      0.87672711	     -0.38796669	     17.27002774	     -1.54525929	      3.08898174	    -24.50774805	     16.85503779	      2.03273023	      6.91330856	     -0.81912619	     -2.58028714	    -13.41405006	     20.66285904	     -3.15360088	      2.19075446	      0.99028707	     11.61523078
      1.56000000	     -7.79034656	      3.46112820	    -35.65617795	     -0.95271182	      0.87646381	     -0.38887859	     18.36940603	     -1.62714621	      3.21833250	    -26.96244777	     16.55097915	      2.36255568	      6.82596759	     -0.64168823	     -2.46452557	    -13.74262981	     20.99653355	     -3.35329535	      1.78467137	      0.95043538	     11.60160884
      1.57000000	     -7.57182025	      3.35915368	    -35.65109741	     -0.95178340	      0.87628167	     -0.38974828	     19.55374710	     -1.66825233	      3.33030678	    -29.59906269	     16.05255738	      2.69355738	      6.70080158	     -0.49225544	     -2.35275023	    -14.04524741	     21.30038118	     -3.51723936	      1.34187786	      0.92857774	     11.58663330
      1.58000000	     -7.37271954	      3.21834641	    -35.62820651	     -0.95081578	      0.87616961	     -0.39059245	     20.83119541	     -1.66011558	      3.39986475	    -32.39024002	     15.29154327	      3.16560609	      6.55887490	     -0.38743502	     -2.23145989	    -14.33192443	     21.59613699	     -3.72322760	      0.88795736	      0.95650955	     11.53698142
      1.59000000	     -7.18715062	      3.05941940	    -35.60071566	     -0.94979525	      0.87612811	     -0.39134660	     22.19991843	     -1.61457388	      3.44951795	    -35.30674625	     14.28143663	      3.53939796	      6.36521466	     -0.30982406	     -2.12150637	    -14.52521174	     21.84560902	     -3.86881224	      0.43582418	      1.00772895	     11.46656229
      1.60000000	     -6.97494431	      2.86841495	    -35.56366164	     -0.94869439	      0.87622819	     -0.39202747	     23.59463997	     -1.55537994	      3.46326169	    -38.29667478	     13.03409799	      3.83024719	      6.08974447	     -0.24461867	     -2.01596711	    -14.65592562	     22.01287774	     -3.97971892	     -0.06437197	      1.07009282	     11.38267904
      1.61000000	     -6.80469757	      2.63663682	    -35.49234262	     -0.94746159	      0.87637032	     -0.39259990	     25.03731489	     -1.44881229	      3.40200737	    -41.30234752	     11.60284875	      4.21205181	      5.78649268	     -0.24603178	     -1.90932023	    -14.72833626	     22.23510529	     -4.15906819	     -0.53944980	      1.20029157	     11.22068990
      1.62000000	     -6.60695096	      2.36214581	    -35.40901869	     -0.94610007	      0.87667626	     -0.39303496	     26.44591924	     -1.32973983	      3.29517471	    -44.26990324	     10.03037901	      4.39000649	      5.37537089	     -0.27296651	     -1.79719598	    -14.71319718	     22.36904782	     -4.28816620	     -1.06050908	      1.34913335	     11.04239277
      1.63000000	     -6.41070457	      2.05807907	    -35.29960961	     -0.94458262	      0.87706700	     -0.39336246	     27.83826657	     -1.20881379	      3.11780999	    -47.16698348	      8.44121706	      4.38192036	      4.90351451	     -0.33031705	     -1.67924172	    -14.63528723	     22.47949853	     -4.40940950	     -1.58934720	      1.53375380	     10.82602695
      1.64000000	     -6.21590392	      1.74023218	    -35.15957268	     -0.94289105	      0.87751388	     -0.39356756	     29.20860090	     -1.10978712	      2.86268947	    -49.96614951	      6.95034343	      4.10338347	      4.37872802	     -0.40557982	     -1.55165954	    -14.49191916	     22.56876842	     -4.53093620	     -2.11086149	      1.73602933	     10.56090607
